<?xml version="1.0" encoding="utf-8"?>
<!-- Generator: Adobe Illustrator 22.0.0, SVG Export Plug-In . SVG Version: 6.00 Build 0)  -->
<svg version="1.1" id="Layer_1" xmlns="http://www.w3.org/2000/svg" xmlns:xlink="http://www.w3.org/1999/xlink" x="0px" y="0px"
	 viewBox="0 0 100 100" style="enable-background:new 0 0 100 100;" xml:space="preserve">
<style type="text/css">
	.st0{fill:#8CBDED;}
</style>
<title>Artboard 6</title>
<g>
	<path class="st0" d="M36,12.2c-1,0-2,0.5-2.6,1.3C30.5,17.9,5.3,56.2,5.3,70.8c-0.4,15.7,13,28.8,29.9,29.2s31-12,31.4-27.7
		c0-0.5,0-1,0-1.5c0-14.5-25.2-52.9-28.1-57.3C38,12.7,37,12.2,36,12.2z M36,93.6c-13.6,0-24.6-10.2-24.6-22.8
		c0-9.9,15.9-36.7,24.6-50.3C44.6,34,60.6,60.9,60.6,70.8C60.6,83.4,49.6,93.6,36,93.6L36,93.6z"/>
	<path class="st0" d="M79.1,1.3C78.5,0.5,77.5,0,76.5,0s-2,0.5-2.6,1.3C72.3,3.8,58,25.6,58,34c-0.3,9.5,7.7,17.4,17.9,17.8
		c10.2,0.3,18.8-7.1,19.1-16.6c0-0.4,0-0.8,0-1.1C95,25.5,80.7,3.8,79.1,1.3z M76.5,45.6c-6.9,0-12.4-5.2-12.4-11.5
		c0-4.5,6.8-16.8,12.4-25.7c5.6,8.9,12.4,21.3,12.4,25.7C88.9,40.4,83.4,45.5,76.5,45.6L76.5,45.6z"/>
	<path class="st0" d="M42,88.4c7.1,0,12.8-5.4,12.8-11.9c0-1.6-1.4-2.8-3-2.8s-3,1.3-3,2.8c0,3.5-3,6.3-6.8,6.3c-1.7,0-3,1.3-3,2.8
		S40.2,88.4,42,88.4L42,88.4z"/>
</g>
</svg>
