<?xml version="1.0" encoding="utf-8"?>
<!-- Generator: Adobe Illustrator 22.0.0, SVG Export Plug-In . SVG Version: 6.00 Build 0)  -->
<svg version="1.1" id="Layer_1" xmlns="http://www.w3.org/2000/svg" xmlns:xlink="http://www.w3.org/1999/xlink" x="0px" y="0px"
	 viewBox="0 0 100 100" style="enable-background:new 0 0 100 100;" xml:space="preserve">
<style type="text/css">
	.st0{fill:none;}
	.st1{fill:#08A030;}
</style>
<g>
	<path class="st0" d="M89.3,63.8C86.4,56.4,76.4,31.5,68,22.9c-1.1-1.2-2.2-2.2-3.1-3.2c-6.7-7-7.3-7.6-16.7-11
		c-4.2-1.5-6.6-2.3-8.3-2.6c-1.4,1.2-4.3,6.8-4.9,8.5c-0.2,0.8-0.4,2.9,0.1,4c0.5,1,0.9,1.3,2.3,1.9l0.3,0.2
		c0.1,0.1,0.2,0.1,0.3,0.2c0.2,0,0.6-0.1,1.4-0.4c0.9-0.4,1.3-0.7,1.7-1c0.9-0.7,2-1.3,3.9-0.7c0.3,0.1,0.7,0.2,1,0.4
		c1.1,0.4,2.3,0.8,3.1,0.8l0,0c0.3,0,0.4,0,0.8-0.2c0.6-0.3,1.5-0.7,2.8-0.6c2.4,0.2,9.2,4.4,10.2,9.3c0.7,3.6,0.7,20.1,0.7,23.3
		c0.7,2.7,1.6,5.8,1.9,6.4l1,1.7L65,61.3c-1.5,1.4-3.1,0.1-3.7-0.4c-1.1-0.9-4-3.3-6.3-3.5c-3.7-0.4-6.5-0.4-10.3,2.2
		C44,60,40.4,64,37.5,67.3l-3.7-3.2l3.4-4.4c-2.7-2.3-8.8-6.3-16.7-3.3c-3.5,1.3-6.3,3.6-8.4,6.7l-2-1.4l2,1.4
		C8.8,68,8.2,74,8.5,76.9c0.2,1.9,0.9,5.7,2.7,9.1l-2.1,1.2l2.1-1.2c2.3,4.4,5.6,6.7,10.1,6.9c10.4,0.4,12.8,0.1,13.7,0h0.3
		c1.7-0.2,4.5-0.3,7.9-0.4c4.4-0.1,9.9-0.3,11.9-0.8c0.2-0.1,20.9-5.9,34.3-23.2c0.8-1,0.5-3.3,0.1-4.1L89.3,63.8z"/>
	<path class="st1" d="M94,62.4L93.8,62C90,52.2,80.2,28.5,71.5,19.4c-1.1-1.2-2.1-2.2-3-3.2c-7-7.3-8.1-8.4-18.6-12.2
		c-5-1.8-7.5-2.6-9.7-3c-4.9-0.7-9.6,11.9-9.7,12c-0.3,1.2-0.9,4.8,0.4,7.6c1.2,2.6,3,3.5,4.5,4.2l0.2,0.1c1.5,1.1,3.4,1,5.9-0.1
		c1.3-0.6,2-1.1,2.5-1.5c0.2,0.1,0.4,0.1,0.6,0.2c1.4,0.5,3.1,1.1,4.7,1.1c1.3,0,2.2-0.4,2.8-0.6c0.3-0.2,0.4-0.2,0.5-0.2
		c1.4,0.4,5.4,3.3,5.8,5.4c0.5,2.4,0.6,14.9,0.6,22.6v0.3l0.1,0.3c0.1,0.3,0.1,0.5,0.2,0.7c-1.2-0.6-2.4-1-3.6-1.1
		c-4.3-0.4-8.3-0.5-13.4,3c-0.3,0.2-0.8,0.6-1.3,1.2c-3.2-2.9-11.3-8.7-22-4.7c-4.4,1.7-8,4.6-10.7,8.6l0,0
		c-3.9,5.9-5,13.1-4.5,17.4c0.3,2.3,1.1,6.7,3.2,10.8l0,0l0,0l0,0l0,0c3.1,6,8,9.2,14.2,9.5c3.8,0.1,6.6,0.2,8.7,0.2
		c3.7,0,5-0.2,5.7-0.3h0.3c1.5-0.2,4.4-0.3,7.5-0.4c5.1-0.2,10.5-0.3,12.9-0.9C62,95,81,87.3,93.2,71.5C95.6,68.4,94.6,63.9,94,62.4
		z M89.4,68.4C76,85.7,55.3,91.5,55.1,91.6c-2,0.5-7.5,0.7-11.9,0.8c-3.3,0.1-6.2,0.2-7.9,0.4H35c-0.9,0.1-3.2,0.4-13.7,0
		c-4.5-0.2-7.8-2.4-10.1-6.9l-2.1,1.2l2.1-1.2c-1.8-3.4-2.4-7.1-2.7-9.1C8.2,74,8.8,68,12.1,63l-2-1.4l2,1.4
		c2.1-3.1,4.9-5.4,8.4-6.7c7.8-3,14,1,16.7,3.3L33.8,64l3.7,3.2c2.9-3.4,6.5-7.4,7.3-7.9c3.9-2.6,6.6-2.6,10.3-2.2
		c2.2,0.2,5.2,2.6,6.3,3.5c0.7,0.5,2.2,1.8,3.7,0.4l1.5-1.4l-1-1.7c-0.3-0.7-1.2-3.7-1.9-6.4c0-3.2,0-19.7-0.7-23.3
		c-1-4.9-7.8-9.2-10.2-9.3c-1.3-0.1-2.2,0.3-2.8,0.6c-0.4,0.2-0.5,0.2-0.8,0.2l0,0c-0.8,0-2-0.4-3.1-0.8c-0.3-0.1-0.7-0.2-1-0.4
		c-1.9-0.6-2.9,0-3.9,0.7c-0.4,0.3-0.8,0.6-1.7,1c-0.8,0.4-1.2,0.4-1.4,0.4c-0.1-0.1-0.2-0.1-0.3-0.2l-0.3-0.2
		c-1.3-0.7-1.8-0.9-2.3-1.9c-0.5-1.1-0.3-3.2-0.1-4c0.6-1.7,3.5-7.2,4.9-8.5c1.7,0.3,4.1,1.2,8.3,2.6c9.5,3.4,10,4,16.7,11
		c0.9,0.9,1.9,2,3.1,3.2c8.3,8.6,18.4,33.5,21.3,40.9l0.2,0.5C89.9,65.2,90.2,67.4,89.4,68.4z"/>
</g>
</svg>
