<?xml version="1.0" encoding="utf-8"?>
<!-- Generator: Adobe Illustrator 22.0.0, SVG Export Plug-In . SVG Version: 6.00 Build 0)  -->
<svg version="1.1" id="Layer_1" xmlns="http://www.w3.org/2000/svg" xmlns:xlink="http://www.w3.org/1999/xlink" x="0px" y="0px"
	 viewBox="0 0 100 100" style="enable-background:new 0 0 100 100;" xml:space="preserve">
<style type="text/css">
	.st0{fill:none;}
	.st1{fill:#99CEAA;}
</style>
<g>
	<path class="st0" d="M81.2,44.9c-5.1-6.1-22.4-26.6-33.1-32.1c-1.4-0.8-2.8-1.4-4-2.1c-8.6-4.5-9.3-4.9-19.3-5.2
		c-4.5-0.1-7-0.1-8.7,0.2c-0.9,1.6-1.9,7.8-2,9.6c0.1,0.8,0.5,2.9,1.4,3.8c0.8,0.8,1.3,0.9,2.8,1.1l0.3,0.1c0.1,0.1,0.2,0,0.3,0.1
		c0.2-0.1,0.5-0.3,1.2-0.8c0.7-0.7,1-1.1,1.3-1.5c0.6-0.9,1.5-1.9,3.5-1.9c0.3,0,0.7,0,1.1,0.1c1.2,0,2.4,0,3.2-0.2l0,0
		c0.3-0.1,0.4-0.1,0.7-0.4c0.5-0.5,1.2-1.1,2.5-1.5c2.3-0.6,10.1,1.3,12.6,5.6c1.8,3.2,7,18.8,8,21.9c1.5,2.3,3.4,5,3.8,5.5l1.5,1.3
		l-1,1.8c-1,1.8-2.9,1.1-3.6,0.8c-1.3-0.5-4.8-1.9-7.1-1.3c-3.6,0.8-6.3,1.7-9.1,5.3c-0.5,0.6-2.7,5.5-4.4,9.6l-4.5-1.9l1.8-5.2
		c-3.3-1.3-10.3-3.2-16.9,2.1c-2.9,2.3-4.8,5.4-5.9,9l-2.3-0.7l2.3,0.7c-1.6,5.7-0.3,11.6,0.9,14.2c0.8,1.7,2.7,5.1,5.4,7.8
		l-1.6,1.8l1.6-1.8c3.6,3.4,7.4,4.6,11.8,3.4c10-2.9,12.2-3.9,13-4.3l0.3-0.1c1.5-0.7,4.2-1.7,7.4-2.9c4.1-1.5,9.3-3.4,11-4.5
		c0.2-0.2,18-12.2,25.2-32.8c0.4-1.2-0.6-3.3-1.2-3.9L81.2,44.9z"/>
	<path class="st1" d="M85.2,42l-0.3-0.3c-6.7-8.1-23.5-27.5-34.6-33.4c-1.4-0.8-2.7-1.4-3.9-2.1c-8.9-4.7-10.3-5.4-21.5-5.7
		C19.6,0.4,17,0.5,14.8,0.8C9.9,1.7,9.4,15.1,9.4,15.2c0.1,1.2,0.7,4.8,2.8,7.1c2,2.1,4,2.4,5.6,2.6l0.2,0c1.8,0.6,3.5-0.1,5.6-2
		c1-1,1.6-1.7,1.9-2.2c0.2,0,0.4,0,0.6,0c1.5,0,3.3,0.1,4.8-0.4c1.2-0.4,2-1.1,2.5-1.5c0.2-0.3,0.3-0.3,0.4-0.3
		c1.5-0.1,6.2,1.4,7.2,3.3c1.2,2.1,5.3,13.9,7.7,21.3l0.1,0.3l0.2,0.3c0.2,0.3,0.3,0.4,0.4,0.6C48,44,46.8,44,45.6,44.3
		c-4.2,1-8,2.1-11.8,7.1c-0.2,0.3-0.6,0.8-0.9,1.5c-4-1.7-13.5-4.7-22.4,2.5c-3.6,3-6.1,6.9-7.4,11.5l0,0c-1.8,6.8-0.6,14,1.2,17.9
		c1,2.1,3.2,6,6.4,9.2l0,0l0,0l0,0l0,0c4.8,4.7,10.5,6.2,16.5,4.5c3.6-1.1,6.3-1.9,8.3-2.6c3.5-1.2,4.7-1.8,5.3-2.1l0.3-0.1
		c1.4-0.7,4.1-1.7,7-2.7c4.8-1.8,9.9-3.6,12-4.9c5-3.1,20.6-16.4,27.1-35.3C88.7,47.2,86.3,43.3,85.2,42z M82.8,49.2
		C75.5,69.8,57.7,81.9,57.6,82c-1.7,1.1-6.9,3-11,4.5c-3.1,1.1-5.8,2.1-7.4,2.9l-0.3,0.1c-0.8,0.4-2.9,1.4-13,4.3
		c-4.3,1.2-8.2,0.2-11.8-3.4l-1.6,1.8l1.6-1.8c-2.8-2.7-4.5-6-5.4-7.8c-1.2-2.6-2.5-8.4-0.9-14.2l-2.3-0.7l2.3,0.7
		c1-3.6,2.9-6.7,5.9-9c6.5-5.3,13.6-3.5,16.9-2.1l-1.8,5.2l4.5,1.9c1.7-4.1,3.8-9.1,4.4-9.8c2.9-3.7,5.4-4.6,9.1-5.3
		c2.2-0.5,5.8,0.8,7.1,1.3c0.8,0.3,2.7,1,3.6-0.8l1-1.8l-1.5-1.3c-0.5-0.6-2.3-3.1-3.8-5.5c-1-3-6.2-18.7-8-21.9
		c-2.5-4.3-10.3-6.3-12.6-5.6c-1.3,0.3-2,1-2.5,1.5c-0.3,0.3-0.4,0.3-0.7,0.4l0,0c-0.8,0.3-2,0.3-3.2,0.2c-0.3,0-0.7,0-1.1-0.1
		c-2,0-2.8,0.9-3.5,1.9c-0.3,0.4-0.6,0.8-1.3,1.5c-0.6,0.6-1,0.8-1.2,0.8c-0.1-0.1-0.2,0-0.3-0.1l-0.3-0.1c-1.5-0.3-2-0.3-2.8-1.1
		c-0.8-0.9-1.3-2.9-1.4-3.8c0-1.8,1-7.9,2-9.6c1.7-0.3,4.3-0.2,8.7-0.2c10.1,0.2,10.8,0.6,19.3,5.2c1.1,0.6,2.4,1.3,4,2.1
		c10.6,5.5,28,26,33.1,32.1l0.3,0.4C82.2,46,83.2,48,82.8,49.2z"/>
</g>
</svg>
