<?xml version="1.0" encoding="utf-8"?>
<!-- Generator: Adobe Illustrator 22.0.0, SVG Export Plug-In . SVG Version: 6.00 Build 0)  -->
<svg version="1.1" id="Layer_1" xmlns="http://www.w3.org/2000/svg" xmlns:xlink="http://www.w3.org/1999/xlink" x="0px" y="0px"
	 viewBox="0 0 100 100" style="enable-background:new 0 0 100 100;" xml:space="preserve">
<style type="text/css">
	.st0{fill:#E50505;}
</style>
<title>Medical 24px - Outline - 028 - Health</title>
<desc>Created with Sketch.</desc>
<g>
	<g>
		<path class="st0" d="M14.8,63.1L43.3,93c1.9,1.7,4.4,2.6,6.9,2.6c2.6,0,5.2-1,7.1-2.7l28.2-29.6c6.9-5.9,11.7-13.9,13.9-22.7
			c1-3.3,1.3-6.8,0.9-10.3C98.9,14.4,87.4,2.9,73.1,2.9c-8.7,0-16.9,4.2-22.1,11.3c-0.2,0.3-0.6,0.5-1,0.5s-0.8-0.2-1-0.5
			C44.1,7.1,36,2.9,27.4,2.9C13.1,2.9,1.6,14.4,0.2,30c-0.4,3.5-0.1,7.1,0.8,10.5C3.2,49.3,8,57.2,14.8,63.1z M54.5,89.9
			C52.1,92,48.6,92,46.2,90L17.7,60.1c-0.1-0.1-0.2-0.2-0.3-0.3h3.5c0.8,0,1.5-0.4,1.8-1.1l8.4-15.2L40,64.8c0.3,0.7,1,1.2,1.8,1.3
			h0.1c0.8,0,1.4-0.4,1.8-1.1l6.6-11.6l4.4,7.5c0.4,0.7,1.3,1.1,2.2,1s1.5-0.8,1.7-1.7l4.3-21.6l4.2,19.6c0.2,1,1.1,1.7,2,1.7h14
			c-0.1,0.1-0.3,0.3-0.4,0.4L54.5,89.9z M4.3,30.6C5.6,17,15.3,7.1,27.4,7.1c7.2,0,14,3.6,18.1,9.5c1,1.4,2.7,2.3,4.4,2.3l0,0
			c1.7,0,3.4-0.8,4.4-2.2c4.3-6,11.3-9.6,18.7-9.6c12.2,0,22,9.9,23.2,23.7c0.3,2.9,0,5.9-0.8,8.7c-1.5,5.9-4.3,11.4-8.2,16H70.8
			l-5.9-27.8c-0.2-1-1.1-1.7-2.1-1.7s-1.8,0.7-2,1.7L55.6,54l-3.5-5.9c-0.4-0.6-1.1-1-1.8-1s-1.4,0.4-1.8,1.1l-6.3,11l-8.8-21.3
			c-0.3-0.7-1-1.2-1.8-1.3c-0.8,0-1.6,0.4-1.9,1.1l-9.9,17.9h-6.4c-3.9-4.6-6.8-10.1-8.2-16C4.3,36.7,4,33.6,4.3,30.6L4.3,30.6z"/>
	</g>
</g>
</svg>
