<?xml version="1.0" encoding="utf-8"?>
<!-- Generator: Adobe Illustrator 22.0.0, SVG Export Plug-In . SVG Version: 6.00 Build 0)  -->
<svg version="1.1" id="Layer_1" xmlns="http://www.w3.org/2000/svg" xmlns:xlink="http://www.w3.org/1999/xlink" x="0px" y="0px"
	 viewBox="0 0 125 125" style="enable-background:new 0 0 125 125;" xml:space="preserve">
<style type="text/css">
	.st0{fill:#FFFFFF;}
</style>
<path class="st0" d="M62.5,85.5c-11.1,0-20.1-9.1-20.1-20.1V25.1C42.4,14.1,51.4,5,62.5,5s20.1,9.1,20.1,20.1v40.3
	C82.6,76.4,73.6,85.5,62.5,85.5z M62.5,10.8c-7.9,0-14.4,6.5-14.4,14.4v40.3c0,7.9,6.5,14.4,14.4,14.4s14.4-6.5,14.4-14.4V25.1
	C76.9,17.2,70.4,10.8,62.5,10.8z M91.3,59.6c-1.6,0-2.9,1.3-2.9,2.9v2.9c0,14.2-11.6,25.9-25.9,25.9S36.6,79.6,36.6,65.4v-2.9
	c0-1.6-1.3-2.9-2.9-2.9s-2.9,1.3-2.9,2.9v2.9c0,16.5,12.6,30,28.8,31.5v17.4H49.6c-1.6,0-2.9,1.3-2.9,2.9s1.3,2.9,2.9,2.9h25.9
	c1.6,0,2.9-1.3,2.9-2.9s-1.3-2.9-2.9-2.9H65.4V96.9c16.1-1.4,28.8-15,28.8-31.5v-2.9C94.1,60.9,92.8,59.6,91.3,59.6z"/>
</svg>
