<?xml version="1.0" encoding="utf-8"?>
<!-- Generator: Adobe Illustrator 22.0.0, SVG Export Plug-In . SVG Version: 6.00 Build 0)  -->
<svg version="1.1" id="Layer_1" xmlns="http://www.w3.org/2000/svg" xmlns:xlink="http://www.w3.org/1999/xlink" x="0px" y="0px"
	 viewBox="0 0 93.6 93.6" style="enable-background:new 0 0 93.6 93.6;" xml:space="preserve">
<style type="text/css">
	.st0{fill:#FFFFFF;}
</style>
<g>
	<g>
		<path class="st0" d="M91.2,67.6c-0.5-0.6-1.3-0.8-2-0.5c-5.2,2.2-10.8,3.2-16.5,3.2c-23.9,0-43.4-19.5-43.4-43.4
			c0-8.3,2.4-16.5,6.9-23.5c0.4-0.6,0.4-1.5-0.1-2.1c-0.5-0.6-1.3-0.8-2-0.5C16.4,8.2,5,25.2,5,44.3c0,25.9,21,46.9,46.9,46.9
			c16,0,30.7-8.1,39.4-21.5C91.7,69,91.7,68.2,91.2,67.6z M51.9,87.7c-23.9,0-43.4-19.5-43.4-43.4c0-15.9,8.5-30.2,22.1-37.8
			c-3.1,6.3-4.7,13.3-4.7,20.4c0,25.9,21,46.9,46.9,46.9c4.2,0,8.4-0.6,12.5-1.7C77,82,64.9,87.7,51.9,87.7z"/>
		<path class="st0" d="M44.9,11.3h6.9l-8.3,11.1c-0.4,0.5-0.5,1.2-0.2,1.8c0.3,0.6,0.9,1,1.6,1h10.4c1,0,1.7-0.8,1.7-1.7
			s-0.8-1.7-1.7-1.7h-6.9l8.3-11.1c0.4-0.5,0.5-1.2,0.2-1.8c-0.3-0.6-0.9-1-1.6-1H44.9c-1,0-1.7,0.8-1.7,1.7S44,11.3,44.9,11.3z"/>
		<path class="st0" d="M62.3,21.7H66l-5.1,7.7c-0.4,0.5-0.4,1.2-0.1,1.8c0.3,0.6,0.9,0.9,1.5,0.9h6.9c1,0,1.7-0.8,1.7-1.7
			s-0.8-1.7-1.7-1.7h-3.7l5.1-7.7c0.4-0.5,0.4-1.2,0.1-1.8c-0.3-0.6-0.9-0.9-1.5-0.9h-6.9c-1,0-1.7,0.8-1.7,1.7S61.3,21.7,62.3,21.7
			z"/>
		<path class="st0" d="M50.4,41.7c0.3,0.5,0.9,0.8,1.5,0.8h3.5c1,0,1.7-0.8,1.7-1.7c0-1-0.8-1.7-1.7-1.7h-0.7l2.2-4.4
			c0.3-0.5,0.2-1.2-0.1-1.7c-0.3-0.5-0.9-0.8-1.5-0.8h-3.5c-1,0-1.7,0.8-1.7,1.7s0.8,1.7,1.7,1.7h0.7l-2.2,4.4
			C50,40.6,50.1,41.2,50.4,41.7z"/>
	</g>
</g>
</svg>
