<?xml version="1.0" encoding="utf-8"?>
<!-- Generator: Adobe Illustrator 22.0.0, SVG Export Plug-In . SVG Version: 6.00 Build 0)  -->
<svg version="1.1" id="Layer_1" xmlns="http://www.w3.org/2000/svg" xmlns:xlink="http://www.w3.org/1999/xlink" x="0px" y="0px"
	 viewBox="0 0 32 32" style="enable-background:new 0 0 32 32;" xml:space="preserve">
<style type="text/css">
	.st0{fill:#FFFFFF;}
</style>
<g>
	<path class="st0" d="M16,32C7.2,32,0,24.8,0,16S7.2,0,16,0s16,7.2,16,16S24.9,32,16,32z M16,2C8.3,2,2,8.3,2,16s6.3,14,14,14
		s14-6.3,14-14S23.8,2,16,2z"/>
	<circle class="st0" cx="16.1" cy="21" r="1"/>
	<path class="st0" d="M16.1,19c-0.6,0-1-0.4-1-1c0-1.3,1.2-2.3,2.3-3.2c0.4-0.3,0.8-1.1,0.5-1.8c-0.2-0.7-1.1-1.1-1.8-1.1l0,0
		c-0.8,0-1.7,0.4-2.1,1.4c-0.2,0.5-0.8,0.8-1.3,0.6s-0.8-0.8-0.6-1.3c0.6-1.6,2.2-2.7,4-2.7l0,0c1.4,0,3.2,0.9,3.7,2.5
		s-0.3,3.3-1.3,4c-1.3,0.9-1.5,1.4-1.5,1.5C17.1,18.6,16.6,19,16.1,19z"/>
</g>
</svg>
