<?xml version="1.0" encoding="utf-8"?>
<!-- Generator: Adobe Illustrator 22.0.0, SVG Export Plug-In . SVG Version: 6.00 Build 0)  -->
<svg version="1.1" id="Layer_1" xmlns="http://www.w3.org/2000/svg" xmlns:xlink="http://www.w3.org/1999/xlink" x="0px" y="0px"
	 viewBox="0 0 93.6 93.6" style="enable-background:new 0 0 93.6 93.6;" xml:space="preserve">
<style type="text/css">
	.st0{fill:#FFFFFF;}
	.st1{display:none;}
	.st2{display:inline;}
</style>
<g>
	<path class="st0" d="M16.4,88.8c-0.6,0.6-0.6,1.6,0,2.3c0.3,0.3,0.7,0.5,1.2,0.5c0.5,0,0.8-0.2,1.2-0.5l9.8-9.8
		c-0.9-0.5-1.8-1.2-2.7-1.8L16.4,88.8z"/>
	<path class="st0" d="M68.4,81l10.1,10.1c0.3,0.3,0.7,0.5,1.2,0.5c0.5,0,0.8-0.2,1.2-0.5c0.6-0.6,0.6-1.6,0-2.3l-9.6-9.6
		C70.2,79.8,69.3,80.4,68.4,81z"/>
	<path class="st0" d="M25.1,2.1C14.1,2.1,5,11.1,5,22.2c0,5.9,2.6,11.2,6.7,14.9c0.4-1.1,0.7-2.3,1.2-3.3c-2.8-3-4.7-7-4.7-11.5
		c0-9.3,7.6-16.8,16.8-16.8c5.3,0,10,2.5,13.1,6.3c1.2-0.3,2.4-0.5,3.6-0.8C38.1,5.6,32,2.1,25.1,2.1z"/>
	<path class="st0" d="M70.6,2.1c-6.9,0-12.9,3.5-16.5,8.7c1.2,0.2,2.4,0.5,3.6,0.7c3.1-3.7,7.7-6.2,13-6.2c9.3,0,16.8,7.6,16.8,16.8
		c0,4.2-1.6,8-4.2,11.1c0.5,1.1,0.9,2.2,1.3,3.4c3.8-3.7,6.1-8.8,6.1-14.4C90.7,11.1,81.7,2.1,70.6,2.1z"/>
	<path class="st0" d="M83.2,37.8c-0.4-1.1-0.7-2.2-1.2-3.3C77.5,23.8,68.1,15.6,56.5,13c-1.1-0.3-2.3-0.5-3.4-0.6
		c-1.6-0.2-3.3-0.4-4.9-0.4c-1.9,0-3.7,0.2-5.6,0.5c-1.2,0.2-2.3,0.4-3.4,0.6C27.8,16,18.5,24.1,14.2,34.9c-0.5,1.1-0.8,2.2-1.2,3.3
		c-1,3.3-1.5,6.8-1.5,10.3c0,12.3,6,23.1,15.4,29.7c0.9,0.6,1.8,1.3,2.7,1.8c5.5,3.2,11.8,5.1,18.6,5.1c6.9,0,13.4-2,19-5.4
		c0.9-0.5,1.8-1.2,2.7-1.8c9.1-6.7,14.9-17.4,14.9-29.4C84.9,44.8,84.3,41.2,83.2,37.8z M48.2,82c-5.9,0-11.4-1.6-16.2-4.2
		c-1-0.5-1.9-1.1-2.8-1.7C20.5,70,14.7,60,14.7,48.6c0-2.9,0.5-5.8,1.1-8.5c0.3-1.1,0.6-2.1,1-3.2c3.9-10.4,12.8-18.4,23.9-20.8
		c1.1-0.3,2.1-0.5,3.3-0.5c1.4-0.2,2.7-0.3,4.2-0.3c1.2,0,2.4,0.1,3.6,0.2c1.1,0.1,2.2,0.3,3.3,0.5c11.2,2.3,20.3,10.2,24.3,20.7
		c0.4,1,0.7,2.1,1,3.2c0.7,2.8,1.2,5.8,1.2,8.8c0,11.2-5.6,21.1-14,27.2c-0.9,0.6-1.8,1.3-2.7,1.8C59.9,80.4,54.2,82,48.2,82z"/>
	<path class="st0" d="M59.9,56l-10.1-8.2V22.2c0-0.9-0.7-1.6-1.6-1.6c-0.9,0-1.6,0.7-1.6,1.6v26.3c0,0.5,0.2,0.9,0.5,1.3l10.7,8.7
		c0.3,0.3,0.6,0.4,1,0.4c0.5,0,0.9-0.2,1.3-0.6C60.6,57.6,60.5,56.6,59.9,56z"/>
</g>
<g class="st1">
	<g class="st2">
		<path class="st0" d="M91.2,67.6c-0.5-0.6-1.3-0.8-2-0.5c-5.2,2.2-10.8,3.2-16.5,3.2c-23.9,0-43.4-19.5-43.4-43.4
			c0-8.3,2.4-16.5,6.9-23.5c0.4-0.6,0.4-1.5-0.1-2.1c-0.5-0.6-1.3-0.8-2-0.5C16.4,8.2,5,25.2,5,44.3c0,25.9,21,46.9,46.9,46.9
			c16,0,30.7-8.1,39.4-21.5C91.7,69,91.7,68.2,91.2,67.6z M51.9,87.7c-23.9,0-43.4-19.5-43.4-43.4c0-15.9,8.5-30.2,22.1-37.8
			c-3.1,6.3-4.7,13.3-4.7,20.4c0,25.9,21,46.9,46.9,46.9c4.2,0,8.4-0.6,12.5-1.7C77,82,64.9,87.7,51.9,87.7z"/>
		<path class="st0" d="M44.9,11.3h6.9l-8.3,11.1c-0.4,0.5-0.5,1.2-0.2,1.8c0.3,0.6,0.9,1,1.6,1h10.4c1,0,1.7-0.8,1.7-1.7
			s-0.8-1.7-1.7-1.7h-6.9l8.3-11.1c0.4-0.5,0.5-1.2,0.2-1.8c-0.3-0.6-0.9-1-1.6-1H44.9c-1,0-1.7,0.8-1.7,1.7S44,11.3,44.9,11.3z"/>
		<path class="st0" d="M62.3,21.7H66l-5.1,7.7c-0.4,0.5-0.4,1.2-0.1,1.8c0.3,0.6,0.9,0.9,1.5,0.9h6.9c1,0,1.7-0.8,1.7-1.7
			s-0.8-1.7-1.7-1.7h-3.7l5.1-7.7c0.4-0.5,0.4-1.2,0.1-1.8c-0.3-0.6-0.9-0.9-1.5-0.9h-6.9c-1,0-1.7,0.8-1.7,1.7S61.3,21.7,62.3,21.7
			z"/>
		<path class="st0" d="M50.4,41.7c0.3,0.5,0.9,0.8,1.5,0.8h3.5c1,0,1.7-0.8,1.7-1.7c0-1-0.8-1.7-1.7-1.7h-0.7l2.2-4.4
			c0.3-0.5,0.2-1.2-0.1-1.7c-0.3-0.5-0.9-0.8-1.5-0.8h-3.5c-1,0-1.7,0.8-1.7,1.7s0.8,1.7,1.7,1.7h0.7l-2.2,4.4
			C50,40.6,50.1,41.2,50.4,41.7z"/>
	</g>
</g>
</svg>
