<svg xmlns="http://www.w3.org/2000/svg" xmlns:xlink="http://www.w3.org/1999/xlink" version="1.1" x="0px" y="0px" viewBox="0 0 512 640" enable-background="new 0 0 512 512" xml:space="preserve"><g><path d="M475.2,173c1.3-8,2-16,2-24c0-81.1-66.2-147-147.5-147c-53.7,0-102.1,28.4-128.3,74.7c-13.7-6.2-28.7-9.4-43.8-9.4   c-56.5,0-102.9,44-106.3,100.1C22.8,174.7,2,200.7,2,230.7c0,36,29.4,65.3,65.5,65.3h376.9c36.1,0,65.5-29.3,65.5-65.3   C510,206.2,496.6,184.3,475.2,173z M444.5,279.7H67.5c-27.1,0-49.2-22-49.2-49c0-46.6,49.2-50.1,49.2-50.1v-7.1   c0-49.5,40.4-89.8,90.1-89.8c28.2,0,50.8,15.2,50.8,15.2s32.1-80.5,121.2-80.5c72.3,0,131.1,58.6,131.1,130.7   c0,20.8-4.2,33.7-4.2,33.7s37,9.5,37,48C493.6,257.7,471.6,279.7,444.5,279.7z"/><path d="M83.9,181.7h16.4c0-36,29.4-65.3,65.5-65.3V100C120.7,100,83.9,136.6,83.9,181.7z"/><path d="M318.4,312.3H217.7l-39.3,98h28L173.1,510l178.4-156.8h-53.5L318.4,312.3z M308.1,369.5l-100.2,88.1l21.3-63.6h-26.6   l26.2-65.3h63.1l-20.5,40.8H308.1z"/></g><text x="0" y="527" fill="#000000" font-size="5px" font-weight="bold" font-family="'Helvetica Neue', Helvetica, Arial-Unicode, Arial, Sans-serif">Created by ProSymbols</text><text x="0" y="532" fill="#000000" font-size="5px" font-weight="bold" font-family="'Helvetica Neue', Helvetica, Arial-Unicode, Arial, Sans-serif">from the Noun Project</text></svg>