<svg xmlns="http://www.w3.org/2000/svg" xmlns:xlink="http://www.w3.org/1999/xlink" version="1.1" x="0px" y="0px" viewBox="0 0 100 100" enable-background="new 0 0 100 100" xml:space="preserve"><g>
<path fill="none" d="M66.452,62.572h-9.105c-0.174,0-0.335-0.096-0.417-0.25c-0.083-0.154-0.074-0.34,0.023-0.485l10.595-15.942   c0.537-0.845,0.801-1.549,0.801-2.142c0-1.373-0.925-2.099-2.675-2.099H53.082c-1.59,0-2.269,0.679-2.269,2.268   c0,1.501,0.721,2.201,2.269,2.201h7.988c0.174,0,0.335,0.096,0.417,0.25c0.083,0.153,0.074,0.34-0.023,0.485L50.87,62.835   c-0.219,0.374-0.496,1.011-0.496,1.803c0,1.64,0.689,2.404,2.167,2.404h13.911c1.592,0,2.302-0.71,2.302-2.302   C68.755,63.261,68.023,62.572,66.452,62.572z"/>
<path fill="none" d="M33.248,47.536H17.969c-0.174,0-0.335-0.096-0.417-0.25c-0.083-0.154-0.074-0.34,0.023-0.485l17.779-26.753   c0.939-1.476,1.397-2.713,1.397-3.771c0-2.479-1.708-3.843-4.809-3.843H10.813c-2.816,0-4.128,1.311-4.128,4.127   c0,2.701,1.35,4.014,4.128,4.014h13.405c0.174,0,0.335,0.096,0.417,0.25c0.083,0.154,0.074,0.34-0.023,0.485L6.833,48.119   c-0.397,0.677-0.886,1.804-0.886,3.203c0,2.93,1.294,4.354,3.957,4.354h23.344c2.816,0,4.184-1.368,4.184-4.184   C37.432,48.867,36.024,47.536,33.248,47.536z"/>
<path fill="none" d="M92.589,84.732h-6.357c-0.174,0-0.335-0.096-0.417-0.25c-0.083-0.153-0.074-0.34,0.023-0.485l7.396-11.129   c0.359-0.564,0.535-1.03,0.535-1.416c0-0.877-0.58-1.322-1.724-1.322h-8.79c-1.023,0-1.441,0.417-1.441,1.44   c0,0.976,0.431,1.393,1.441,1.393h5.577c0.174,0,0.335,0.096,0.417,0.25c0.083,0.153,0.074,0.34-0.023,0.485L81.83,84.851   c-0.14,0.239-0.323,0.66-0.323,1.18c0,1.076,0.41,1.536,1.37,1.536h9.712c1.027,0,1.464-0.438,1.464-1.464   C94.053,85.154,93.602,84.732,92.589,84.732z"/>
<path d="M33.248,46.589H18.852l17.295-26.025c1.043-1.64,1.55-3.043,1.55-4.287c0-1.44-0.561-4.79-5.756-4.79H10.813   c-3.367,0-5.075,1.707-5.075,5.074c0,3.245,1.755,4.961,5.075,4.961h12.523L6.03,47.618C5.356,48.765,5,50.046,5,51.323   c0,3.468,1.696,5.301,4.904,5.301h23.344c3.357,0,5.131-1.774,5.131-5.131C38.379,48.331,36.557,46.589,33.248,46.589z    M33.248,55.677H9.904c-2.663,0-3.957-1.425-3.957-4.354c0-1.4,0.49-2.527,0.886-3.203L24.611,21.31   c0.097-0.145,0.105-0.332,0.023-0.485c-0.082-0.153-0.243-0.25-0.417-0.25H10.813c-2.778,0-4.128-1.313-4.128-4.014   c0-2.816,1.312-4.127,4.128-4.127h21.129c3.101,0,4.809,1.365,4.809,3.843c0,1.059-0.459,2.295-1.397,3.771L17.575,46.801   c-0.097,0.145-0.105,0.332-0.023,0.485c0.082,0.153,0.243,0.25,0.417,0.25h15.279c2.776,0,4.184,1.331,4.184,3.957   C37.432,54.309,36.064,55.677,33.248,55.677z"/>
<path d="M66.452,61.625H58.23l10.112-15.215c0.642-1.01,0.954-1.879,0.954-2.658c0-1.907-1.354-3.045-3.621-3.045H53.082   c-2.104,0-3.216,1.111-3.216,3.215c0,2.03,1.142,3.148,3.216,3.148h7.106L50.068,62.333c-0.419,0.713-0.641,1.51-0.641,2.305   c0,2.161,1.106,3.35,3.114,3.35h13.911c2.095,0,3.249-1.154,3.249-3.249C69.701,62.731,68.548,61.625,66.452,61.625z    M66.452,67.041H52.541c-1.478,0-2.167-0.764-2.167-2.404c0-0.791,0.277-1.429,0.496-1.803l10.595-15.977   c0.097-0.145,0.105-0.332,0.023-0.485c-0.082-0.153-0.243-0.25-0.417-0.25h-7.988c-1.548,0-2.269-0.7-2.269-2.201   c0-1.589,0.679-2.268,2.269-2.268h12.592c1.75,0,2.675,0.726,2.675,2.099c0,0.594-0.263,1.297-0.801,2.142L56.953,61.837   c-0.097,0.145-0.105,0.332-0.023,0.485c0.082,0.153,0.243,0.25,0.417,0.25h9.105c1.571,0,2.302,0.689,2.302,2.167   C68.755,66.331,68.045,67.041,66.452,67.041z"/>
<path d="M92.589,83.785h-5.474l6.913-10.402c0.463-0.729,0.688-1.361,0.688-1.932c0-1.421-0.998-2.269-2.671-2.269h-8.79   c-1.54,0-2.388,0.848-2.388,2.387c0,1.509,0.848,2.34,2.388,2.34h4.695L81.027,84.35c-0.306,0.52-0.467,1.101-0.467,1.681   c0,1.6,0.823,2.482,2.316,2.482h9.712c1.555,0,2.411-0.856,2.411-2.411C95,84.629,94.121,83.785,92.589,83.785z M92.589,87.567   h-9.712c-0.96,0-1.37-0.459-1.37-1.536c0-0.52,0.183-0.94,0.323-1.18l7.396-11.153c0.097-0.145,0.105-0.332,0.023-0.485   c-0.082-0.154-0.243-0.25-0.417-0.25h-5.577c-1.01,0-1.441-0.417-1.441-1.393c0-1.023,0.417-1.44,1.441-1.44h8.79   c1.144,0,1.724,0.445,1.724,1.322c0,0.386-0.177,0.852-0.535,1.416l-7.396,11.129c-0.097,0.145-0.105,0.332-0.023,0.485   c0.082,0.154,0.243,0.25,0.417,0.25h6.357c1.013,0,1.464,0.422,1.464,1.37C94.053,87.128,93.616,87.567,92.589,87.567z"/></g></svg>
