<?xml version="1.0" encoding="utf-8"?>
<!-- Generator: Adobe Illustrator 19.1.0, SVG Export Plug-In . SVG Version: 6.00 Build 0)  -->
<svg version="1.1" id="Layer_1" xmlns="http://www.w3.org/2000/svg" xmlns:xlink="http://www.w3.org/1999/xlink" x="10px" y="10px"
	 viewBox="-379 599.2 10.5 9" style="enable-background:new -379 599.2 10.5 9;" xml:space="preserve">
<style type="text/css">
	.st0{fill:#F17300;}
</style>
<g>
	<path class="st0" d="M-373.5,604.6l-0.8,1.5c-0.1,0.1-0.2,0.2-0.4,0.2c0,0,0,0-0.1,0c-0.2,0-0.3-0.2-0.4-0.3l-0.6-2.8l-0.6,1.1
		c-0.1,0.1-0.2,0.2-0.4,0.2h-1.5c0.9,1.5,2.5,3,4.5,3.6c2-0.7,3.6-2.1,4.5-3.6L-373.5,604.6L-373.5,604.6z"/>
	<path class="st0" d="M-377,603.7l1-2c0.1-0.2,0.3-0.3,0.4-0.2c0.2,0,0.3,0.2,0.4,0.3l0.6,2.9l0.4-0.7c0.1-0.1,0.2-0.2,0.4-0.2h4.9
		c0.6-1.5,0.5-3-0.8-3.9c-2.3-1.7-4.1,0.7-4.1,0.7s-1.9-2.4-4.1-0.7c-1.2,0.9-1.4,2.4-0.8,3.9C-378.7,603.7-377,603.7-377,603.7z"/>
</g>
</svg>
