<?xml version="1.0" encoding="utf-8"?>
<!-- Generator: Adobe Illustrator 19.1.0, SVG Export Plug-In . SVG Version: 6.00 Build 0)  -->
<svg version="1.1" id="Layer_1" xmlns="http://www.w3.org/2000/svg" xmlns:xlink="http://www.w3.org/1999/xlink" x="0px" y="0px"
	 viewBox="-362.5 609.7 57.9 16" style="enable-background:new -362.5 609.7 57.9 16;" xml:space="preserve">
<style type="text/css">
	.st0{fill:#F17300;}
	.st1{font-family:'ProximaNova-Bold';}
	.st2{font-size:10px;}
</style>
<g>
	<path class="st0" d="M-354.4,619l-1.1,2c-0.1,0.2-0.3,0.3-0.5,0.3c0,0-0.1,0-0.1,0c-0.2,0-0.4-0.2-0.5-0.4l-0.8-3.8l-0.8,1.5
		c-0.1,0.2-0.3,0.3-0.5,0.3h-2c1.2,2,3.3,3.9,6,4.9c2.6-0.9,4.8-2.8,6-4.8L-354.4,619L-354.4,619z"/>
	<path class="st0" d="M-359.1,617.8l1.4-2.6c0.1-0.2,0.3-0.3,0.6-0.3c0.2,0,0.4,0.2,0.5,0.4l0.9,3.8l0.5-1c0.1-0.2,0.3-0.3,0.5-0.3
		h6.5c0.8-2,0.6-4-1-5.2c-3-2.3-5.5,0.9-5.5,0.9s-2.5-3.2-5.5-0.9c-1.6,1.2-1.8,3.2-1.1,5.2C-361.4,617.8-359.1,617.8-359.1,617.8z"
		/>
</g>
<text transform="matrix(1 0 0 1 -346.2544 621.0564)" class="st0 st1 st2">Cheerios</text>
</svg>
