<?xml version="1.0" encoding="utf-8"?>
<!-- Generator: Adobe Illustrator 19.1.0, SVG Export Plug-In . SVG Version: 6.00 Build 0)  -->
<svg version="1.1" id="Layer_1" xmlns:sketch="http://www.bohemiancoding.com/sketch/ns"
	 xmlns="http://www.w3.org/2000/svg" xmlns:xlink="http://www.w3.org/1999/xlink" x="0px" y="0px" viewBox="-378.5 601.4 74.9 16.5"
	 style="enable-background:new -378.5 601.4 50 10;" xml:space="preserve">
<style type="text/css">
	.st0{fill:#4099FF;}
	.st1{font-family:'ProximaNova-Semibold';}
	.st2{font-size:2px;}
</style>
<title></title>
<path id="Oval-1" class="st0" d="M-372.4,611.6l0,0.2l-0.2,0c-0.8-0.1-1.6-0.5-2.2-1.1l-0.3-0.3l-0.1,0.2c-0.2,0.5-0.1,1.1,0.3,1.4
	c0.2,0.2,0.1,0.2-0.2,0.1c-0.1,0-0.2-0.1-0.2-0.1c0,0,0.1,0.5,0.2,0.7c0.1,0.2,0.4,0.5,0.6,0.6l0.2,0.1l-0.3,0c-0.3,0-0.3,0-0.2,0.1
	c0.1,0.3,0.5,0.7,0.9,0.8l0.3,0.1l-0.2,0.2c-0.4,0.2-0.8,0.4-1.2,0.4c-0.2,0-0.4,0-0.4,0c0,0,0.6,0.3,0.9,0.4c1,0.3,2.2,0.2,3-0.4
	c0.6-0.4,1.2-1.1,1.5-1.9c0.2-0.4,0.3-1.1,0.3-1.5c0-0.2,0-0.3,0.3-0.5c0.2-0.2,0.3-0.3,0.3-0.4c0-0.1,0-0.1-0.2,0
	c-0.4,0.1-0.4,0.1-0.3-0.1c0.1-0.2,0.3-0.4,0.3-0.5c0,0-0.1,0-0.1,0.1c-0.1,0-0.3,0.1-0.4,0.2l-0.2,0.1l-0.2-0.2
	c-0.1-0.1-0.3-0.2-0.4-0.2c-0.2-0.1-0.6-0.1-0.8,0C-372.1,610.4-372.4,611-372.4,611.6C-372.4,611.6-372.4,611-372.4,611.6z"/>
<text transform="matrix(1 0 0 1 -368.1246 615.6662)" class="st0 st1 st2">Login with Twitter</text>
</svg>
