<?xml version="1.0" encoding="utf-8"?>
<!-- Generator: Adobe Illustrator 19.1.0, SVG Export Plug-In . SVG Version: 6.00 Build 0)  -->
<svg version="1.1" id="Layer_1" xmlns:sketch="http://www.bohemiancoding.com/sketch/ns"
	 xmlns="http://www.w3.org/2000/svg" xmlns:xlink="http://www.w3.org/1999/xlink" x="0px" y="0px" viewBox="-378.5 601.4 74.9 16.5"
	 style="enable-background:new -378.5 601.4 74.9 16.5;" xml:space="preserve">
<style type="text/css">
	.st0{fill:#4099FF;}
	.st1{font-family:'ProximaNova-Semibold';}
	.st2{font-size:2px;}
</style>
<title></title>
<path id="Oval-1" class="st0" d="M-343.8,606.6l0,0.1l-0.1,0c-0.5-0.1-0.8-0.3-1.2-0.6l-0.2-0.2l0,0.1c-0.1,0.3,0,0.6,0.2,0.8
	c0.1,0.1,0.1,0.1-0.1,0.1c-0.1,0-0.1,0-0.1,0c0,0,0,0.3,0.1,0.3c0.1,0.1,0.2,0.3,0.3,0.3l0.1,0.1l-0.1,0c-0.1,0-0.1,0-0.1,0.1
	c0,0.2,0.2,0.3,0.5,0.4l0.2,0.1l-0.1,0.1c-0.2,0.1-0.4,0.2-0.7,0.2c-0.1,0-0.2,0-0.2,0c0,0,0.3,0.2,0.5,0.2c0.5,0.2,1.2,0.1,1.6-0.2
	c0.3-0.2,0.7-0.6,0.8-1c0.1-0.2,0.2-0.6,0.2-0.8c0-0.1,0-0.1,0.1-0.3c0.1-0.1,0.2-0.2,0.2-0.2c0,0,0,0-0.1,0c-0.2,0.1-0.2,0.1-0.1,0
	c0.1-0.1,0.2-0.2,0.2-0.3c0,0,0,0-0.1,0c0,0-0.1,0.1-0.2,0.1l-0.1,0l-0.1-0.1c-0.1,0-0.2-0.1-0.2-0.1c-0.1,0-0.3,0-0.4,0
	C-343.6,605.9-343.8,606.2-343.8,606.6C-343.8,606.6-343.8,606.2-343.8,606.6z"/>
<text transform="matrix(1 0 0 1 -351.8745 610.958)" class="st0 st1 st2">Login with Twitter</text>
</svg>
